{"glyphs":{"0":{"ha":1885,"x_min":41,"x_max":1830,"o":"m 932 1710 q 1364 1607 1205 1708 q 1612 1429 1470 1566 q 1802 997 1755 1244 q 1830 680 1819 886 q 1733 76 1830 399 q 1514 -281 1660 -99 q 1312 -505 1444 -388 q 909 -661 1112 -661 q 397 -434 648 -661 q 127 -10 220 -253 q 41 485 41 273 q 282 1296 41 892 q 513 1578 349 1429 q 932 1710 686 1710 m 814 519 q 946 188 814 188 q 1118 393 1038 188 q 1139 590 1139 449 l 1139 637 q 1000 929 1139 892 l 993 929 q 821 622 881 929 q 814 519 814 570 z "},"1":{"ha":1436,"x_min":41,"x_max":1381,"o":"m 1036 1646 q 1215 1560 1143 1646 q 1347 1122 1274 1496 q 1381 852 1381 940 l 1381 743 q 1312 69 1353 229 q 1111 -432 1249 -166 q 886 -587 983 -587 l 858 -587 q 518 -311 668 -587 q 432 230 432 -135 q 450 570 432 349 q 409 593 458 614 q 271 564 323 564 q 41 760 41 604 l 41 777 q 168 1111 41 873 q 812 1611 397 1466 q 1036 1646 894 1634 z "},"2":{"ha":1902,"x_min":41,"x_max":1848,"o":"m 1025 1629 q 1370 1560 1270 1607 q 1577 1421 1516 1490 q 1710 1099 1667 1331 q 1617 685 1750 919 q 1335 276 1565 541 q 1255 173 1255 207 q 1278 144 1255 150 q 1457 150 1384 150 l 1468 150 q 1767 0 1645 150 q 1848 -196 1848 -115 q 1278 -616 1848 -473 q 858 -650 970 -650 l 640 -650 q 173 -524 355 -650 q 41 -294 41 -416 l 41 -276 q 231 178 41 -50 q 455 380 357 323 q 714 587 509 433 q 898 771 898 746 l 898 783 q 858 823 898 823 q 633 708 804 812 q 374 621 446 621 q 46 949 42 621 q 249 1299 46 1067 q 777 1606 520 1541 q 1025 1629 924 1629 z "},"3":{"ha":2132,"x_min":41,"x_max":2078,"o":"m 1238 1721 l 1290 1721 q 1750 1537 1547 1721 q 1911 1145 1911 1373 q 1710 662 1911 935 q 1704 644 1710 656 q 1853 530 1761 587 q 2078 104 2078 318 q 2026 -150 2061 -77 q 1543 -593 1837 -490 q 932 -673 1326 -673 q 405 -562 672 -673 q 81 -328 113 -399 q 41 -201 41 -264 q 196 35 41 -73 q 450 92 302 92 q 909 35 564 92 q 996 28 935 28 l 1065 28 q 1186 92 1186 28 q 709 227 1186 195 q 503 359 584 243 q 460 512 460 434 q 990 840 460 796 q 1065 909 1065 857 q 996 956 1044 956 q 610 915 923 956 q 288 1105 374 915 q 265 1225 265 1193 q 645 1571 265 1433 q 1238 1721 976 1721 z "},"4":{"ha":1919,"x_min":41,"x_max":1865,"o":"m 1295 1715 l 1307 1715 q 1462 1537 1425 1715 q 1157 896 1462 1337 q 987 630 1059 771 l 987 618 q 1022 595 999 595 q 1177 612 1122 612 l 1423 622 q 1802 449 1678 613 q 1865 264 1865 332 l 1865 259 q 1612 -29 1865 79 q 1330 -121 1447 -92 q 1301 -167 1301 -140 l 1301 -184 q 1140 -593 1301 -492 q 967 -639 1073 -639 l 956 -639 q 633 -305 721 -639 q 587 -98 606 -98 q 559 -86 569 -86 q 110 28 185 -86 q 41 299 41 131 q 346 1116 41 659 q 886 1594 583 1431 q 1295 1715 1145 1715 z "},"5":{"ha":2014,"x_min":41,"x_max":1935,"o":"m 1022 1709 q 1788 1563 1491 1709 q 1929 1332 1929 1462 q 1670 1067 1929 1205 q 1160 939 1405 939 q 892 954 1127 939 q 858 909 858 942 l 858 875 q 909 812 858 812 q 1286 869 1116 869 l 1383 869 q 1851 661 1678 869 q 1935 334 1935 543 q 1692 -247 1935 68 q 1315 -512 1424 -476 q 954 -648 1074 -633 q 791 -675 830 -675 l 774 -675 q 176 -450 337 -675 q 41 -90 46 -283 q 142 136 41 60 q 244 159 196 159 q 683 108 542 108 q 886 102 878 102 q 1145 182 991 102 q 1202 260 1194 229 q 1168 294 1202 277 q 559 148 706 148 q 351 221 463 148 q 170 548 266 275 q 120 914 120 739 l 120 931 q 311 1591 120 1406 q 1022 1709 382 1675 z "},"6":{"ha":1862,"x_min":41,"x_max":1807,"o":"m 1036 1715 l 1042 1715 q 1491 1587 1233 1715 q 1779 1181 1779 1402 q 1612 891 1779 1019 q 1485 862 1543 862 l 1474 862 q 1261 938 1426 862 q 1099 961 1153 961 l 1065 961 q 800 752 857 961 q 846 723 807 723 l 1002 740 q 1721 427 1461 740 q 1807 131 1807 267 l 1807 79 q 1658 -315 1790 -118 q 1388 -542 1537 -490 q 921 -652 1160 -652 l 904 -652 q 397 -484 578 -652 q 104 -54 174 -308 q 41 410 41 222 l 41 421 q 104 926 41 535 l 179 1176 q 628 1645 309 1473 q 1036 1715 806 1715 m 989 191 q 890 153 931 191 q 849 60 849 115 q 890 -33 849 5 q 989 -72 931 -72 q 1088 -33 1047 -72 q 1129 60 1129 5 q 1088 153 1129 115 q 989 191 1047 191 z "},"7":{"ha":2058,"x_min":41,"x_max":2003,"o":"m 1163 1718 q 1865 1506 1493 1718 q 2003 1270 2003 1411 q 1721 481 1990 985 q 1583 245 1676 374 q 1272 -158 1419 10 q 784 -551 1142 -313 q 518 -670 601 -670 l 507 -670 q 367 -561 403 -670 q 346 -463 345 -493 q 570 136 346 -330 q 845 562 680 332 l 1054 826 q 1019 867 1105 895 q 818 838 888 838 l 663 838 q 75 1114 251 838 q 41 1217 41 1156 l 41 1229 q 254 1511 41 1377 q 1134 1718 636 1718 l 1163 1718 z "},"8":{"ha":1758,"x_min":41,"x_max":1704,"o":"m 1007 1706 q 1439 1400 1308 1659 q 1543 962 1543 1206 q 1424 673 1543 837 l 1428 651 q 1681 197 1663 381 q 1704 76 1697 151 q 1457 -471 1704 -220 q 875 -667 1198 -667 q 463 -603 666 -669 q 127 -304 260 -536 q 41 58 70 -233 l 41 87 q 259 559 41 337 q 271 616 286 579 q 149 901 185 727 q 143 1078 121 993 q 294 1423 157 1250 q 743 1693 414 1598 q 1007 1706 854 1716 m 862 1069 q 763 1031 804 1069 q 722 939 722 993 q 763 846 722 884 q 862 808 804 808 q 961 846 920 808 q 1002 939 1002 884 q 961 1031 1002 993 q 862 1069 920 1069 m 892 210 q 776 166 824 210 q 728 58 728 121 q 776 -50 728 -5 q 892 -94 824 -94 q 1007 -50 959 -94 q 1055 58 1055 -5 q 1007 166 1055 121 q 892 210 959 210 z "},"9":{"ha":1862,"x_min":41,"x_max":1807,"o":"m 956 1714 l 967 1714 q 1689 1250 1429 1714 q 1807 705 1807 944 l 1807 635 q 1675 -119 1807 321 q 1128 -619 1514 -473 q 846 -654 932 -654 l 835 -654 q 191 -393 486 -654 q 75 -125 75 -265 l 75 -102 q 204 145 75 46 q 374 205 301 213 q 593 125 422 205 q 754 101 701 101 l 777 101 q 1048 293 983 101 l 1048 316 q 1008 339 1038 339 q 869 328 900 328 l 760 328 q 300 479 518 328 q 104 692 186 560 q 41 943 41 823 q 214 1407 41 1156 q 651 1673 329 1581 q 956 1714 809 1714 m 935 1084 q 828 1046 873 1084 q 784 954 784 1008 q 828 860 784 899 q 935 821 873 821 q 1042 860 998 821 q 1086 954 1086 899 q 1042 1046 1086 1008 q 935 1084 998 1084 z "}," ":{"ha":555,"x_min":0,"x_max":0,"o":""}," ":{"ha":555,"x_min":0,"x_max":0,"o":""},"!":{"ha":975,"x_min":41,"x_max":921,"o":"m 587 1836 l 605 1836 q 846 1600 748 1836 q 921 1180 921 1372 q 800 374 921 614 q 530 63 711 146 l 501 63 q 225 299 391 63 q 41 990 58 599 q 184 1537 41 1261 q 409 1773 260 1674 q 587 1836 509 1836 m 587 -52 l 593 -52 q 789 -115 696 -52 q 886 -299 886 -199 q 599 -698 886 -583 q 309 -730 464 -736 q 98 -466 98 -696 q 334 -129 98 -269 q 587 -52 471 -52 z "},"\"":{"ha":1823,"x_min":41,"x_max":1725,"o":"m 426 1899 q 662 1824 522 1899 q 823 1479 823 1690 l 823 1444 q 737 990 767 990 q 553 863 640 863 q 380 938 504 863 q 110 1249 181 1116 q 41 1548 41 1430 q 98 1721 41 1626 q 414 1899 235 1899 l 426 1899 m 1334 1899 l 1352 1899 q 1702 1663 1568 1899 q 1725 1554 1725 1596 q 1512 1059 1725 1274 q 1219 863 1357 884 q 1046 967 1140 863 q 977 1197 1006 1002 q 943 1485 943 1419 q 1121 1836 943 1695 q 1334 1899 1268 1899 z "},"%":{"ha":1815,"x_min":28,"x_max":1761,"o":"m 543 1746 q 743 1663 657 1746 q 835 1433 835 1548 l 835 1404 q 618 1069 835 1214 q 321 997 482 987 q 46 1255 46 1040 q 363 1721 46 1553 q 543 1746 418 1745 m 1652 1750 q 1761 1623 1752 1750 q 985 121 1761 1282 q 564 -368 721 -214 q 156 -656 248 -656 l 144 -656 q 41 -472 28 -656 l 41 -454 q 219 195 54 -218 q 559 789 408 572 q 1042 1375 624 924 q 1652 1750 1449 1731 m 1402 131 q 1601 48 1516 131 q 1693 -182 1693 -66 l 1693 -210 q 1477 -545 1693 -401 q 1179 -618 1341 -627 q 905 -360 905 -574 q 1221 106 905 -62 q 1402 131 1277 130 z "},"'":{"ha":878,"x_min":41,"x_max":823,"o":"m 432 1899 l 450 1899 q 783 1697 644 1899 q 823 1554 823 1620 q 593 1036 823 1264 q 317 863 414 863 q 133 989 220 863 q 41 1468 43 1179 l 41 1485 q 203 1801 41 1659 q 432 1899 334 1895 z "},"(":{"ha":1465,"x_min":41,"x_max":1411,"o":"m 1175 1853 q 1393 1704 1299 1853 q 1411 1611 1411 1653 q 1105 1013 1411 1420 q 950 743 994 835 q 864 374 864 532 l 864 276 q 1111 -305 898 13 q 1238 -576 1238 -528 l 1238 -604 q 1042 -800 1196 -800 q 927 -812 1042 -812 l 904 -812 q 467 -627 642 -812 q 225 -294 319 -487 q 46 351 46 117 q 41 368 41 351 q 133 967 41 696 q 427 1479 305 1345 q 663 1692 460 1548 q 1175 1853 926 1853 z "},")":{"ha":1459,"x_min":41,"x_max":1404,"o":"m 530 1859 l 541 1859 q 1094 1548 871 1859 q 1324 1082 1230 1383 q 1404 621 1404 889 q 1226 -104 1404 212 q 1013 -449 1149 -277 q 300 -800 671 -800 l 265 -800 q 52 -639 138 -800 q 41 -593 41 -618 l 41 -553 q 346 40 41 -371 l 484 271 q 587 696 587 510 l 587 731 q 484 1105 587 873 q 346 1347 451 1187 q 208 1640 208 1584 q 311 1819 208 1734 q 530 1859 374 1859 z "},",":{"ha":878,"x_min":41,"x_max":823,"o":"m 432 241 l 450 241 q 783 39 644 241 q 823 -104 823 -38 q 593 -623 823 -394 q 317 -795 414 -795 q 133 -669 220 -795 q 41 -191 43 -479 l 41 -174 q 203 142 41 1 q 432 241 334 237 z "},".":{"ha":878,"x_min":41,"x_max":823,"o":"m 513 201 q 737 104 648 180 q 823 -132 823 -7 q 576 -512 823 -345 q 392 -564 478 -564 q 41 -305 41 -518 l 41 -271 q 323 155 41 -23 q 513 201 437 201 z "},";":{"ha":884,"x_min":41,"x_max":829,"o":"m 404 996 l 432 996 q 714 823 566 996 q 749 690 749 734 q 460 345 749 486 q 311 317 382 317 q 87 443 189 317 q 41 616 41 541 l 41 667 q 277 967 41 846 q 404 996 363 996 m 518 127 q 754 52 648 127 q 829 -201 829 -22 q 599 -627 829 -445 q 259 -806 431 -806 q 104 -604 120 -806 q 98 -553 104 -584 q 110 -311 110 -444 l 104 -271 q 219 0 104 -124 q 518 127 376 127 z "},"?":{"ha":1747,"x_min":41,"x_max":1695,"o":"m 1238 1807 q 1632 1603 1536 1807 q 1693 1347 1693 1494 q 1358 530 1695 1053 q 939 115 1206 322 q 708 40 802 40 q 508 186 540 40 q 708 690 495 317 l 708 708 q 691 731 724 741 l 680 731 q 541 667 667 731 q 317 604 397 604 l 311 604 q 52 800 151 604 q 41 863 41 849 q 224 1272 41 998 q 518 1565 421 1519 q 985 1773 726 1722 q 1238 1807 1137 1807 m 794 -91 l 800 -92 q 974 -166 895 -101 q 1045 -338 1056 -249 q 739 -661 1017 -587 q 467 -661 610 -681 q 299 -408 275 -610 q 552 -134 319 -235 q 794 -91 686 -79 z "},"A":{"ha":1911,"x_min":41,"x_max":1819,"o":"m 1075 1674 q 1422 1529 1250 1659 q 1738 913 1636 1347 q 1819 279 1819 597 l 1819 176 q 1727 -371 1819 -3 q 1514 -630 1658 -550 q 1416 -653 1461 -653 l 1404 -653 q 1082 -480 1241 -653 q 996 -221 996 -364 q 990 -26 990 -52 q 932 15 971 15 q 852 -204 877 15 q 713 -560 827 -455 q 427 -642 639 -638 l 392 -642 q 156 -452 289 -642 q 58 -140 100 -371 q 41 3 41 -54 l 41 159 q 242 1200 45 867 q 689 1636 413 1516 q 1075 1674 840 1705 m 962 840 q 863 781 904 840 q 822 638 822 722 q 863 495 822 554 q 962 436 904 436 q 1061 495 1020 436 q 1102 638 1102 554 q 1061 781 1102 722 q 962 840 1020 840 z "},"B":{"ha":1839,"x_min":41,"x_max":1770,"o":"m 829 1729 q 1365 1670 1136 1740 q 1653 1371 1553 1583 q 1690 1209 1690 1299 l 1690 1186 q 1494 726 1690 937 q 1457 663 1457 691 q 1672 455 1553 578 q 1770 202 1770 329 l 1770 52 q 1371 -529 1770 -226 q 838 -650 1158 -650 q 384 -569 481 -621 q 148 -345 210 -494 q 47 393 89 -222 q 130 1409 41 911 q 408 1658 163 1531 q 829 1729 491 1704 m 947 1153 q 880 1122 907 1153 q 853 1049 853 1092 q 880 975 853 1006 q 947 945 907 945 q 1014 975 987 945 q 1042 1049 1042 1006 q 1014 1122 1042 1092 q 947 1153 987 1153 m 1020 291 q 930 250 967 291 q 892 150 892 208 q 930 50 892 91 q 1020 8 967 8 q 1110 50 1073 8 q 1147 150 1147 91 q 1110 250 1147 208 q 1020 291 1073 291 z "},"C":{"ha":1815,"x_min":30,"x_max":1738,"o":"m 902 1699 q 1378 1670 1125 1746 q 1731 1250 1720 1487 q 1622 977 1737 1112 q 1376 812 1495 817 l 1160 859 q 1108 863 1129 864 q 826 604 949 857 q 798 449 795 528 q 945 237 805 294 q 1085 209 1011 206 l 1131 211 q 1409 321 1177 213 l 1432 322 q 1681 160 1534 326 q 1731 -24 1733 81 q 1556 -417 1738 -172 q 1327 -606 1415 -584 q 1053 -650 1219 -643 q 336 -321 699 -666 q 78 183 142 -90 q 43 451 49 334 l 41 519 q 191 1143 30 760 q 430 1480 248 1282 q 902 1699 639 1648 z "},"D":{"ha":1836,"x_min":41,"x_max":1733,"o":"m 708 1720 q 1175 1577 1034 1674 q 1428 1394 1333 1485 q 1635 1052 1598 1183 q 1733 589 1733 804 q 1652 81 1733 243 q 1278 -405 1509 -257 q 967 -582 1198 -481 q 656 -645 796 -629 q 127 -347 233 -645 q 54 103 64 -60 q 41 737 41 429 q 92 1320 58 1252 q 248 1600 107 1447 q 708 1720 389 1720 m 802 557 q 877 269 802 269 q 1004 558 989 269 q 894 817 977 817 l 877 817 q 802 557 802 760 z "},"E":{"ha":1960,"x_min":41,"x_max":1906,"o":"m 985 1713 q 1602 1567 1318 1713 q 1802 1354 1802 1430 l 1802 1349 q 1272 990 1802 1145 q 1036 933 1036 957 q 1152 882 1036 882 q 1525 791 1450 846 q 1606 631 1606 720 q 1290 347 1606 452 q 1054 261 1054 307 l 1054 239 q 1122 204 1074 204 q 1554 284 1490 284 q 1865 96 1714 284 q 1906 -80 1906 17 l 1906 -98 q 1439 -570 1906 -424 q 777 -644 1103 -644 q 720 -650 777 -650 q 196 -370 314 -650 q 41 677 53 178 q 104 1189 43 946 q 277 1531 165 1418 q 518 1645 342 1592 q 985 1713 707 1713 z "},"F":{"ha":1660,"x_min":53,"x_max":1606,"o":"m 783 1699 q 1560 1487 1455 1699 q 1606 1312 1606 1397 q 1474 1019 1606 1179 q 1168 890 1322 911 q 1048 837 1048 865 q 1232 755 1048 804 q 1428 503 1428 666 q 1238 252 1428 378 q 944 164 1166 198 q 812 87 812 164 q 743 -416 808 -313 q 536 -627 659 -566 q 427 -656 473 -656 l 420 -656 q 64 122 159 -656 q 53 566 54 202 q 87 1089 60 978 q 173 1406 110 1286 q 406 1611 293 1579 q 783 1699 599 1695 z "},"G":{"ha":1885,"x_min":41,"x_max":1811,"o":"m 954 1709 q 1475 1581 1215 1779 q 1693 1218 1687 1390 q 1475 911 1693 978 l 1438 911 q 1202 942 1404 911 q 885 723 1068 924 q 768 390 768 568 l 768 365 q 873 201 768 231 l 892 201 q 1004 428 998 201 q 1122 710 1025 630 q 1364 791 1265 791 q 1742 490 1598 791 q 1811 70 1811 305 q 1556 -682 1811 -442 q 1270 -833 1440 -798 l 1252 -833 q 1040 -626 1139 -833 q 779 -568 1040 -601 q 288 -281 546 -513 q 41 415 41 -11 q 326 1218 50 856 q 954 1709 598 1603 z "},"H":{"ha":2051,"x_min":68,"x_max":1926,"o":"m 997 883 q 1104 958 1104 899 q 1318 1616 1144 1369 q 1450 1702 1388 1702 q 1828 1320 1685 1702 q 1926 547 1926 1002 q 1817 -235 1926 211 q 1685 -505 1773 -378 q 1472 -665 1541 -665 q 1281 -508 1377 -665 q 1148 -93 1198 -370 q 998 -56 1148 -60 q 846 -93 846 -60 q 713 -508 797 -370 q 523 -665 617 -665 q 309 -505 454 -665 q 178 -235 222 -378 q 68 547 68 211 q 167 1320 68 1002 q 545 1702 310 1702 q 677 1616 607 1702 q 890 958 850 1369 q 997 883 890 899 z "},"I":{"ha":1046,"x_min":41,"x_max":962,"o":"m 534 1790 q 770 1685 625 1790 q 884 1440 884 1560 q 498 1004 884 1168 q 426 991 456 991 l 378 991 q 119 1185 240 991 q 83 1310 83 1249 l 83 1322 q 294 1697 83 1506 q 534 1790 412 1790 m 612 934 q 842 747 732 934 q 962 166 962 475 q 836 -378 962 -222 q 637 -602 765 -536 q 486 -652 544 -652 q 106 -346 260 -652 q 41 -2 41 -114 l 41 16 q 366 860 41 673 q 612 934 519 934 z "},"J":{"ha":1689,"x_min":41,"x_max":1615,"o":"m 1100 1727 l 1129 1727 q 1467 1444 1319 1727 q 1591 892 1591 1067 q 1615 682 1609 819 q 1378 -220 1615 163 q 846 -640 1186 -526 q 727 -665 784 -665 q 295 -508 527 -665 q 79 -228 94 -317 q 41 75 41 -133 q 177 490 41 349 q 514 700 360 700 q 674 622 585 700 q 751 423 751 544 q 727 201 727 231 q 804 105 727 105 l 816 105 q 946 267 904 105 q 952 357 952 319 l 952 423 q 774 1042 952 589 q 751 1282 751 1166 q 964 1679 751 1505 q 1100 1727 1057 1727 z "},"K":{"ha":1873,"x_min":41,"x_max":1819,"o":"m 495 1727 q 726 1600 640 1727 q 823 1376 781 1528 q 875 1128 852 1300 q 911 1013 886 996 q 1059 1207 966 1098 q 1600 1552 1392 1552 l 1606 1552 q 1773 1346 1773 1552 l 1773 1274 q 1605 776 1773 1060 q 1451 492 1451 541 q 1624 219 1494 402 q 1819 -344 1819 -133 l 1819 -374 q 1640 -634 1819 -522 q 1554 -646 1580 -646 q 1094 -410 1339 -646 q 875 -144 963 -245 l 869 -144 q 789 -416 836 -288 q 501 -646 661 -646 l 467 -646 q 81 -52 207 -646 q 41 662 41 231 q 92 1177 41 890 q 290 1611 170 1485 q 495 1727 377 1727 z "},"L":{"ha":1804,"x_min":41,"x_max":1750,"o":"m 547 1744 l 559 1744 q 864 1323 762 1744 q 944 451 935 863 l 944 433 q 939 293 944 375 q 990 229 938 206 q 1226 281 1137 281 q 1554 194 1387 281 q 1750 -111 1750 43 l 1750 -140 q 1347 -603 1747 -498 q 950 -649 1168 -649 q 110 -286 241 -649 q 41 263 41 -119 q 150 1147 41 589 q 340 1616 245 1506 q 547 1744 455 1744 z "},"M":{"ha":2264,"x_min":46,"x_max":2141,"o":"m 656 1726 q 918 1611 752 1729 q 1109 1356 1025 1506 l 1132 1358 q 1267 1493 1161 1358 q 1578 1708 1443 1672 l 1618 1714 q 1898 1560 1734 1717 q 2104 1092 2083 1320 q 2136 547 2127 918 q 2091 -214 2141 307 q 1698 -644 1974 -637 q 1429 -483 1563 -648 q 1331 -221 1333 -320 q 1290 49 1297 -44 q 1249 71 1269 71 l 1243 71 q 1118 -7 1147 -7 q 1007 65 1095 -8 q 958 -80 955 64 q 824 -469 911 -347 q 529 -643 703 -639 q 231 -437 383 -646 q 46 290 64 -174 q 78 889 46 817 q 216 1394 134 1181 q 378 1598 250 1482 q 656 1726 521 1708 z "},"N":{"ha":2115,"x_min":39,"x_max":2017,"o":"m 1637 1740 q 1812 1595 1717 1741 q 1963 1234 1884 1495 q 2015 753 2017 930 l 2016 712 q 1937 -116 2013 104 q 1744 -552 1910 -317 q 1522 -637 1667 -635 q 1249 -511 1409 -638 q 982 -79 1059 -321 q 929 -28 947 -27 q 880 -204 897 -28 q 720 -564 792 -515 q 560 -648 667 -646 q 410 -608 505 -648 q 155 -258 272 -547 q 45 450 51 102 q 97 990 39 754 q 562 1716 228 1713 q 1097 1411 886 1720 q 1186 1301 1158 1301 q 1269 1466 1217 1301 q 1506 1715 1358 1653 q 1637 1740 1565 1740 z "},"O":{"ha":1908,"x_min":41,"x_max":1830,"o":"m 932 1719 q 1364 1615 1205 1716 q 1612 1435 1470 1573 q 1802 1000 1755 1249 q 1830 680 1819 888 q 1733 71 1830 397 q 1364 -488 1633 -239 q 909 -672 1112 -672 q 397 -444 648 -672 q 127 -16 220 -261 q 61 637 41 269 q 282 1301 95 983 q 513 1586 349 1435 q 932 1719 686 1719 m 880 545 q 966 275 880 275 q 1076 442 1025 275 q 1089 604 1089 488 l 1089 642 q 1000 882 1089 851 l 996 882 q 884 630 924 882 q 880 545 880 587 z "},"P":{"ha":1873,"x_min":41,"x_max":1819,"o":"m 905 1715 q 1439 1590 1176 1714 q 1779 1164 1681 1435 q 1819 907 1819 1024 q 1537 236 1819 479 q 1048 84 1337 84 q 1004 -69 1021 59 q 892 -395 956 -296 q 576 -657 737 -657 q 90 -12 216 -657 q 41 435 41 373 l 41 493 q 69 1258 41 1079 q 427 1649 69 1515 q 905 1715 647 1718 m 1033 942 q 980 905 1002 942 q 958 815 958 867 q 980 726 958 763 q 1033 689 1002 689 q 1086 726 1064 689 q 1107 815 1107 763 q 1086 905 1107 867 q 1033 942 1064 942 z "},"Q":{"ha":1960,"x_min":37,"x_max":1906,"o":"m 909 1704 q 1240 1623 1120 1697 q 1589 1283 1455 1483 q 1784 811 1721 1134 q 1802 673 1802 694 q 1687 -46 1802 322 l 1687 -58 q 1802 -213 1687 -77 q 1906 -466 1906 -363 q 1721 -771 1906 -620 q 1606 -800 1649 -800 l 1600 -800 q 1261 -576 1434 -800 l 1221 -564 q 1048 -622 1203 -564 q 835 -656 956 -656 q 450 -507 684 -646 q 202 -213 334 -440 q 37 441 41 73 q 132 1060 41 817 q 467 1536 197 1276 q 909 1704 720 1704 m 779 461 q 932 139 800 131 q 1091 355 1024 145 q 1099 553 1108 412 l 1096 600 q 939 882 1080 854 l 932 882 q 779 564 821 875 q 779 461 776 512 z "},"R":{"ha":2037,"x_min":65,"x_max":1974,"o":"m 840 1702 l 863 1704 q 1573 1544 1231 1716 q 1932 1106 1819 1409 q 1966 918 1963 1002 q 1891 427 1974 677 q 1626 140 1808 233 q 1598 95 1597 136 q 1775 -81 1599 74 q 1884 -296 1863 -188 q 1752 -510 1887 -396 q 1495 -618 1609 -615 l 1467 -620 q 1097 -315 1234 -610 q 1038 -239 1064 -254 l 1033 -239 q 949 -382 989 -241 q 597 -676 791 -669 q 170 -191 373 -671 q 65 604 68 143 q 115 1135 71 986 q 302 1518 170 1356 q 758 1695 469 1685 q 840 1702 758 1699 m 1034 935 q 969 876 996 935 q 942 735 942 817 q 969 594 942 652 q 1034 536 996 536 q 1098 594 1072 536 q 1125 735 1125 652 q 1098 876 1125 817 q 1034 935 1072 935 z "},"S":{"ha":1891,"x_min":29,"x_max":1834,"o":"m 1004 1737 q 1510 1590 1308 1723 q 1721 1310 1694 1458 q 1748 1142 1742 1261 q 1466 816 1735 880 q 1409 812 1436 811 q 1131 918 1333 816 q 1023 947 1060 945 l 983 948 q 935 905 937 951 q 1236 798 955 811 q 1647 628 1410 789 q 1803 403 1772 524 q 1833 175 1834 296 q 1673 -279 1828 -59 q 894 -654 1386 -663 l 865 -653 q 298 -470 590 -640 q 41 -66 29 -298 q 222 214 47 79 q 443 266 335 271 q 870 165 492 264 l 905 163 l 928 179 q 693 260 972 252 q 312 422 527 273 q 106 683 153 547 q 73 953 66 798 q 186 1270 79 1067 q 454 1563 290 1458 q 1004 1737 771 1750 z "},"T":{"ha":2115,"x_min":41,"x_max":2061,"o":"m 956 1723 q 1514 1694 1404 1723 q 1969 1423 1846 1598 q 2061 1205 2061 1295 l 2061 1187 q 1683 829 2058 924 q 1502 808 1516 823 l 1497 779 q 1548 393 1548 578 q 1436 -268 1548 70 q 1105 -657 1281 -651 l 1082 -657 q 668 -251 833 -654 q 576 376 576 38 q 645 768 576 503 q 564 814 645 814 q 173 958 380 814 q 41 1217 41 1080 q 161 1441 41 1312 q 956 1723 511 1723 z "},"U":{"ha":1976,"x_min":35,"x_max":1879,"o":"m 568 1723 q 876 1448 773 1727 q 891 1265 889 1354 l 892 1210 q 848 721 894 1116 q 845 568 848 699 q 943 374 860 373 l 985 376 q 1111 592 1086 378 l 1106 867 q 1074 1359 1078 1065 q 1320 1707 1093 1633 q 1636 1573 1484 1737 q 1809 1192 1727 1463 q 1879 615 1872 1039 q 1826 81 1874 311 q 1661 -300 1748 -193 q 1428 -531 1527 -493 q 975 -650 1249 -644 l 922 -652 q 582 -524 819 -653 q 262 -195 389 -390 q 108 137 166 -68 q 39 595 43 414 q 123 1157 35 807 q 439 1664 258 1538 q 568 1723 504 1718 z "},"V":{"ha":1994,"x_min":41,"x_max":1914,"o":"m 1721 1721 q 1914 1478 1905 1721 q 1864 913 1914 1320 q 1476 -258 1737 156 q 998 -663 1211 -663 l 932 -663 q 656 -527 814 -663 q 245 250 477 -359 q 89 772 143 532 q 41 1204 41 1124 q 227 1685 41 1586 q 345 1696 273 1709 q 534 1588 404 1698 q 860 985 696 1402 q 956 742 935 742 l 974 742 q 1071 1009 994 742 q 1305 1447 1204 1326 q 1721 1721 1513 1721 z "},"W":{"ha":2345,"x_min":20,"x_max":2295,"o":"m 350 1725 q 677 1492 477 1713 l 787 1335 q 936 1027 857 1217 q 992 992 972 956 q 1196 1192 1103 1192 q 1409 1000 1299 1197 q 1443 989 1428 989 l 1455 991 q 1564 1229 1480 1002 q 2030 1729 1813 1718 q 2266 1444 2217 1737 q 2295 1074 2295 1280 l 2295 1050 q 2045 -191 2295 352 q 1610 -646 1807 -637 q 1334 -474 1495 -652 q 1196 -271 1278 -403 l 1174 -252 l 1156 -268 q 1052 -431 1122 -328 q 730 -662 881 -654 q 315 -235 517 -672 q 45 745 85 253 q 177 1589 20 1289 q 350 1725 249 1720 z "},"X":{"ha":1931,"x_min":41,"x_max":1876,"o":"m 1613 1721 l 1636 1721 q 1832 1559 1749 1721 q 1849 1466 1849 1497 l 1849 1443 q 1738 936 1849 1192 q 1514 513 1657 736 l 1497 461 q 1733 73 1497 419 q 1876 -390 1876 -253 l 1876 -396 q 1802 -633 1876 -595 q 1698 -662 1752 -662 l 1687 -662 q 1031 -233 1364 -662 q 1008 -222 1021 -233 l 985 -222 q 777 -396 956 -222 q 254 -662 460 -647 q 52 -511 130 -662 q 41 -448 41 -488 q 300 195 41 -170 q 467 450 367 315 l 478 490 q 305 774 477 526 q 81 1312 81 1124 l 81 1364 q 191 1631 81 1512 q 305 1677 248 1677 q 761 1399 447 1677 l 932 1220 q 973 1202 958 1202 q 1183 1412 1011 1202 q 1539 1698 1390 1627 q 1613 1721 1589 1721 z "},"Y":{"ha":1976,"x_min":104,"x_max":1921,"o":"m 412 1700 q 851 1471 600 1716 q 1080 1241 1043 1254 l 1091 1242 q 1265 1449 1125 1246 q 1633 1720 1489 1708 q 1887 1595 1825 1735 q 1900 1318 1921 1501 q 1702 595 1893 1102 q 1404 77 1588 311 q 1050 -330 1125 -277 q 394 -653 739 -605 q 117 -414 159 -669 q 288 -22 104 -258 q 656 505 660 467 q 661 524 663 506 l 660 542 q 516 680 657 576 q 169 1249 260 922 q 149 1349 154 1296 q 273 1653 134 1531 q 412 1700 335 1694 z "},"Z":{"ha":2345,"x_min":39,"x_max":2288,"o":"m 1315 1710 l 1343 1709 q 2180 1459 1824 1697 q 2285 1206 2288 1379 q 2079 770 2281 1055 q 1701 381 1875 528 q 1517 221 1525 243 l 1512 210 q 1733 129 1510 163 q 2271 -252 2277 53 q 2082 -475 2268 -374 q 1433 -629 1853 -581 q 925 -656 1167 -651 q 231 -544 410 -643 q 44 -222 39 -410 q 728 665 54 151 q 794 745 793 718 l 794 758 l 766 764 q 448 725 490 724 q 92 932 195 732 q 67 1086 65 999 q 534 1567 73 1319 q 1315 1710 892 1721 z "},"`":{"ha":408,"x_min":41,"x_max":353,"o":"m 353 732 l 307 732 l 83 869 q 51 896 62 882 q 41 924 41 909 q 55 959 41 945 q 91 972 68 972 q 118 964 104 972 q 156 932 132 956 l 353 732 z "},"a":{"ha":1866,"x_min":41,"x_max":1810,"o":"m 1026 1529 q 1446 1442 1214 1523 q 1756 1070 1674 1310 q 1807 479 1810 796 q 1734 -112 1802 94 q 1396 -554 1634 -406 q 937 -667 1189 -663 q 96 -295 279 -667 q 41 -117 41 -205 l 41 -90 q 328 358 41 108 q 793 536 559 536 q 982 600 982 536 q 1009 741 993 600 q 954 800 1004 800 q 760 660 920 800 q 444 547 568 547 q 130 698 221 547 q 90 843 90 766 q 389 1324 90 1061 q 893 1529 677 1529 l 1026 1529 m 861 -5 q 787 -26 818 -5 q 756 -76 756 -47 q 787 -126 756 -105 q 861 -146 818 -146 q 936 -126 905 -146 q 966 -76 966 -105 q 936 -26 966 -47 q 861 -5 905 -5 z "},"b":{"ha":2000,"x_min":41,"x_max":1946,"o":"m 663 1705 l 668 1705 q 944 1515 815 1705 q 1025 1158 1025 1318 l 1025 1078 q 1099 985 1025 985 l 1249 985 q 1761 715 1513 985 q 1946 209 1946 471 q 1727 -355 1946 -157 q 1428 -563 1583 -504 q 737 -666 1130 -663 q 305 -580 530 -666 q 168 -396 212 -504 q 41 496 41 -18 l 41 525 q 225 1446 41 1075 q 467 1670 309 1602 q 663 1705 547 1705 m 1137 286 q 1070 257 1098 286 q 1042 189 1042 229 q 1070 122 1042 150 q 1137 94 1098 94 q 1205 122 1177 94 q 1234 189 1234 150 q 1205 257 1234 229 q 1137 286 1177 286 z "},"c":{"ha":1815,"x_min":41,"x_max":1761,"o":"m 1071 1529 l 1105 1529 q 1531 1393 1358 1508 q 1756 1103 1709 1264 q 1761 1063 1756 1085 q 1508 692 1761 869 q 1411 659 1444 659 l 1388 659 q 1175 709 1337 659 q 1128 715 1143 715 q 898 590 1013 715 q 789 334 789 460 q 973 118 789 178 q 1105 100 1042 100 q 1370 186 1162 100 q 1416 192 1411 192 q 1652 38 1522 192 q 1672 -117 1675 -4 q 1525 -480 1669 -307 q 1048 -702 1327 -696 q 432 -480 703 -702 q 179 -190 252 -336 q 81 50 126 -117 q 41 317 52 136 l 41 476 q 242 1051 68 745 q 444 1296 296 1148 q 875 1501 677 1474 q 1071 1529 952 1529 z "},"d":{"ha":2000,"x_min":41,"x_max":1946,"o":"m 1324 1721 q 1727 1508 1594 1721 q 1946 466 1946 1194 q 1865 -219 1946 182 q 1704 -547 1802 -459 q 1249 -650 1504 -650 l 1244 -650 q 605 -564 798 -650 q 161 -236 349 -484 q 46 121 46 -75 q 41 195 41 121 l 41 213 q 237 743 41 526 q 513 949 370 894 q 898 1002 640 1002 q 962 1059 962 1002 q 1019 1473 958 1265 q 1192 1681 1074 1617 q 1324 1721 1267 1721 m 1004 241 q 936 213 964 241 q 908 145 908 185 q 936 78 908 106 q 1004 50 964 50 q 1072 78 1044 50 q 1100 145 1100 106 q 1072 213 1100 185 q 1004 241 1044 241 z "},"e":{"ha":1954,"x_min":41,"x_max":1919,"o":"m 1049 1495 l 1065 1495 q 1604 1282 1345 1495 q 1788 912 1746 1128 l 1788 884 q 1685 471 1788 595 q 1239 140 1550 277 q 1194 106 1219 140 l 1194 95 q 1228 72 1206 72 q 1598 235 1358 107 q 1699 251 1661 251 l 1710 251 q 1877 122 1836 251 q 1798 -250 1919 -58 q 1379 -545 1658 -431 q 915 -656 1076 -656 l 886 -656 q 237 -252 504 -656 q 68 168 107 -75 q 41 402 41 359 q 315 1186 41 913 q 886 1472 606 1436 q 1049 1495 978 1495 m 928 835 q 858 791 884 823 q 842 724 833 759 q 888 675 850 690 q 971 671 926 659 q 1041 714 1016 682 q 1058 781 1067 747 q 1011 830 1049 814 q 928 835 973 846 z "},"f":{"ha":1942,"x_min":41,"x_max":1862,"o":"m 1022 1761 q 1504 1630 1207 1758 q 1817 1364 1764 1491 q 1862 1137 1862 1245 q 1691 881 1862 998 q 1572 853 1640 853 l 1550 853 q 1175 983 1465 853 q 1017 1006 1135 995 q 823 910 884 1006 l 823 876 q 863 847 841 847 q 1113 859 918 847 q 1339 785 1227 859 q 1448 570 1448 677 q 1152 246 1448 383 q 1022 167 1022 213 l 1022 161 q 1090 -197 1090 -54 l 1090 -208 q 846 -616 1090 -475 q 727 -645 775 -645 q 262 -389 449 -645 q 120 -20 182 -276 q 41 547 41 338 l 41 587 q 119 1078 41 755 q 410 1556 212 1384 q 1022 1761 608 1748 z "},"g":{"ha":1787,"x_min":41,"x_max":1729,"o":"m 1315 1545 l 1325 1545 q 1654 1120 1539 1545 q 1729 563 1712 869 q 1625 -83 1708 101 q 1315 -525 1556 -279 q 821 -690 1096 -690 q 434 -633 630 -690 q 174 -451 290 -581 q 41 -138 41 -258 q 211 70 41 25 q 279 75 245 75 q 640 -5 591 -5 l 667 -5 q 688 16 675 -5 l 688 27 q 513 85 688 47 q 261 225 341 154 q 125 409 177 295 q 62 722 62 544 q 200 1131 62 898 q 487 1380 309 1284 q 927 1486 665 1486 q 1097 1470 1056 1470 q 1240 1534 1109 1470 q 1315 1545 1280 1545 m 884 766 q 807 749 840 770 q 771 695 774 728 q 797 635 768 662 q 869 606 826 609 q 946 622 913 602 q 982 676 979 643 q 956 735 985 709 q 884 766 927 762 z "},"h":{"ha":1879,"x_min":33,"x_max":1808,"o":"m 514 1736 q 829 1489 762 1747 q 891 1021 854 1490 q 920 1000 916 1000 l 937 1000 q 1111 1036 1069 1034 l 1156 1038 q 1750 577 1591 1058 q 1806 70 1803 318 q 1685 -412 1808 -144 q 1318 -667 1524 -650 q 1089 -532 1156 -674 q 1029 -79 1035 -439 q 1023 103 1023 9 l 1023 109 q 954 174 1008 176 l 937 173 q 865 -18 863 170 q 782 -316 844 -195 q 457 -665 640 -657 q 105 -131 255 -674 q 43 518 52 86 q 84 1065 33 805 q 233 1531 123 1299 q 514 1736 378 1730 z "},"i":{"ha":975,"x_min":41,"x_max":921,"o":"m 518 1535 q 752 1417 652 1518 q 846 1220 846 1285 q 611 871 846 989 q 369 816 486 816 q 92 1040 155 823 q 317 1478 50 1291 q 518 1535 419 1535 m 587 766 l 593 766 q 783 635 676 766 q 921 63 921 386 q 833 -394 921 -276 q 633 -600 777 -495 q 450 -656 543 -656 q 127 -431 277 -656 q 41 -77 41 -217 q 225 597 41 417 q 444 737 359 727 q 587 766 536 766 z "},"j":{"ha":1626,"x_min":41,"x_max":1555,"o":"m 1060 1541 l 1088 1541 q 1413 1283 1271 1541 q 1532 777 1532 938 q 1555 585 1550 711 q 1328 -239 1555 111 q 815 -623 1143 -518 q 701 -645 756 -645 q 286 -502 509 -645 q 77 -245 92 -327 q 41 31 41 -159 q 172 410 41 281 q 496 602 348 602 q 650 531 564 602 q 724 349 724 460 q 701 146 701 173 q 775 58 701 58 l 787 58 q 911 207 871 58 q 918 289 918 254 l 918 349 q 747 916 918 501 q 724 1135 724 1029 q 929 1497 724 1338 q 1060 1541 1019 1541 z "},"k":{"ha":1827,"x_min":41,"x_max":1776,"o":"m 452 1716 q 753 1487 616 1723 q 888 968 884 1165 q 913 700 902 747 q 948 679 913 677 q 1111 793 976 680 q 1647 1039 1406 1030 q 1761 908 1752 1041 q 1571 420 1759 659 q 1491 304 1497 339 q 1639 134 1491 264 q 1776 -239 1767 24 q 1715 -467 1776 -355 q 1468 -657 1603 -652 q 1175 -545 1262 -675 q 1019 -234 1120 -486 q 898 -137 961 -135 q 788 -321 833 -140 q 608 -595 734 -534 q 444 -646 514 -644 q 179 -492 296 -652 q 69 114 102 -302 q 41 638 46 441 q 165 1445 61 1118 q 332 1678 235 1636 q 452 1716 380 1708 z "},"l":{"ha":1039,"x_min":41,"x_max":1000,"o":"m 616 1743 q 881 1528 747 1743 q 956 1060 956 1371 q 904 456 944 854 q 864 163 864 219 l 864 95 q 973 -260 864 -73 q 997 -377 1000 -321 q 673 -639 985 -549 q 576 -650 596 -650 q 334 -566 441 -650 q 92 4 181 -430 q 41 603 41 416 q 165 1400 41 1099 q 346 1670 215 1554 q 616 1743 427 1742 z "},"m":{"ha":2352,"x_min":35,"x_max":2283,"o":"m 1763 1523 l 1784 1523 q 2184 1043 2053 1523 q 2283 403 2266 764 q 2229 -146 2266 34 q 1989 -589 2149 -427 q 1866 -642 1905 -642 l 1829 -642 q 1632 -493 1695 -642 q 1616 -370 1616 -418 l 1616 -328 q 1664 221 1616 -290 q 1662 633 1664 289 q 1608 697 1662 697 q 1533 623 1533 686 q 1556 307 1533 536 l 1556 109 q 1451 -365 1556 -91 q 1221 -631 1366 -555 q 1136 -658 1160 -658 l 1110 -658 q 897 -487 962 -658 q 870 -242 870 -347 q 881 -24 870 -230 l 881 237 l 894 568 q 867 627 886 627 l 851 627 q 772 493 772 627 q 686 -314 798 83 q 532 -597 600 -520 q 398 -661 460 -661 q 121 -288 248 -661 q 41 230 41 43 q 77 947 35 644 q 393 1501 178 1501 q 648 1299 487 1501 l 665 1299 q 787 1407 700 1299 q 1010 1512 928 1512 l 1017 1512 q 1282 1369 1120 1512 q 1357 1299 1333 1299 q 1491 1407 1376 1299 q 1763 1523 1647 1523 z "},"n":{"ha":1786,"x_min":57,"x_max":1721,"o":"m 393 1548 l 415 1548 q 659 1355 524 1548 q 704 1337 682 1337 q 838 1440 717 1337 q 1182 1548 1006 1548 q 1563 1309 1377 1548 q 1701 553 1697 1065 q 1551 -395 1721 -144 q 1222 -646 1384 -646 l 1194 -646 q 1025 -515 1106 -646 q 964 -265 987 -433 q 955 302 939 109 q 950 576 952 494 q 904 616 930 616 q 811 491 820 616 l 817 263 q 762 -191 822 139 q 556 -595 699 -432 q 382 -680 443 -680 q 119 -374 229 -680 q 57 400 68 -183 q 116 1218 66 943 q 230 1463 157 1400 q 393 1548 330 1548 z "},"o":{"ha":1873,"x_min":57,"x_max":1814,"o":"m 939 -625 q 514 -530 671 -623 q 271 -364 410 -491 q 85 37 131 -193 q 57 330 68 139 q 153 891 57 591 q 515 1405 251 1176 q 961 1574 762 1574 q 1464 1364 1218 1574 q 1729 971 1637 1196 q 1794 370 1814 708 q 1577 -241 1761 52 q 1350 -503 1511 -364 q 939 -625 1181 -625 m 989 454 q 906 703 989 703 q 798 549 848 703 q 785 401 785 507 l 785 365 q 872 145 785 173 l 876 145 q 985 376 947 145 q 989 454 989 416 z "},"p":{"ha":1931,"x_min":41,"x_max":1855,"o":"m 711 1542 q 1752 1122 1499 1542 q 1855 757 1855 978 l 1855 720 q 1500 85 1855 332 q 1163 -11 1321 -11 q 1054 -6 1135 -11 q 989 -103 989 -6 q 869 -559 989 -367 q 656 -678 737 -678 l 646 -678 q 340 -581 426 -678 q 111 -178 207 -482 q 41 381 73 -11 q 100 1047 41 627 q 248 1413 157 1293 q 509 1520 302 1472 q 711 1542 618 1537 m 1023 799 q 959 767 986 799 q 932 690 932 735 q 959 613 932 645 q 1023 581 986 581 q 1088 613 1061 581 q 1115 690 1115 645 q 1088 767 1115 735 q 1023 799 1061 799 z "},"q":{"ha":1895,"x_min":41,"x_max":1818,"o":"m 1129 1525 q 1567 1440 1368 1525 q 1717 1194 1664 1381 q 1802 687 1777 1042 q 1818 431 1818 526 q 1749 -172 1798 16 q 1636 -455 1717 -300 q 1375 -663 1483 -663 q 1225 -685 1307 -685 q 1002 -551 1128 -685 q 895 -87 895 -391 l 895 -66 q 846 -18 888 -18 q 734 -23 828 -18 q 148 329 373 -23 q 41 719 41 506 q 286 1274 41 1066 q 740 1487 435 1422 q 1129 1525 816 1509 m 940 838 q 877 807 903 838 q 851 730 851 775 q 877 654 851 686 q 940 622 903 622 q 1003 654 977 622 q 1029 730 1029 686 q 1003 807 1029 775 q 940 838 977 838 z "},"r":{"ha":1750,"x_min":41,"x_max":1681,"o":"m 1149 1556 q 1619 1271 1473 1556 q 1676 986 1674 1077 q 1440 619 1681 711 q 1326 591 1379 591 q 963 690 1203 591 q 934 696 953 696 q 867 646 866 688 q 884 340 867 606 q 789 -328 903 -43 q 614 -581 736 -461 q 440 -673 512 -662 q 150 -317 259 -673 q 51 450 58 52 l 47 591 q 152 1331 41 954 q 336 1512 246 1512 l 353 1512 q 576 1402 469 1512 q 627 1386 597 1386 q 800 1468 641 1386 q 1149 1556 987 1556 z "},"s":{"ha":1746,"x_min":41,"x_max":1681,"o":"m 855 1528 q 1249 1470 1030 1528 q 1507 1228 1430 1385 q 1560 1013 1560 1100 q 1328 708 1560 791 q 1281 702 1310 708 q 1007 787 1190 702 q 865 808 935 808 q 829 766 829 797 q 1071 681 865 681 q 1402 597 1237 681 q 1681 161 1681 452 l 1681 135 q 1580 -239 1681 -20 q 1086 -627 1402 -539 q 855 -664 1030 -647 q 319 -527 604 -664 q 62 -207 131 -401 l 56 -159 q 203 98 56 -40 q 408 156 302 156 l 451 156 q 1013 -28 599 156 q 1081 -39 1036 -39 l 1092 -39 q 1128 -7 1128 -12 l 1128 9 q 1007 67 1128 67 q 608 140 911 67 q 224 351 347 229 q 41 708 41 536 l 41 760 q 351 1338 41 1030 q 556 1459 520 1459 q 855 1528 697 1528 z "},"t":{"ha":1544,"x_min":41,"x_max":1516,"o":"m 577 1714 q 820 1329 743 1714 q 877 1239 820 1239 q 1147 1261 1096 1261 q 1464 1053 1381 1256 q 1338 702 1516 860 q 1086 567 1236 620 q 871 488 881 508 q 859 454 859 469 l 859 177 q 927 121 859 126 l 939 121 q 1261 160 1192 160 q 1481 -21 1459 166 q 1274 -472 1487 -254 q 781 -670 1004 -670 q 233 -309 393 -670 q 109 7 167 -202 q 41 522 41 356 q 127 1194 47 998 q 385 1623 233 1471 q 577 1714 512 1714 z "},"u":{"ha":1844,"x_min":41,"x_max":1777,"o":"m 564 1550 q 781 1417 682 1550 q 853 1122 853 1327 q 804 615 853 953 l 804 465 q 865 298 804 332 l 920 292 l 926 292 q 1048 509 1027 292 l 1048 732 q 1009 1200 1026 930 q 1198 1517 1009 1436 q 1282 1528 1270 1523 q 1577 1372 1421 1528 q 1749 916 1655 1282 q 1777 515 1777 764 q 1616 -253 1777 104 q 1326 -553 1478 -483 q 876 -659 1151 -659 q 525 -531 759 -659 q 208 -175 304 -359 q 85 131 156 -123 q 41 488 41 355 q 263 1322 41 926 q 564 1550 431 1550 z "},"v":{"ha":1891,"x_min":41,"x_max":1836,"o":"m 1635 1552 l 1670 1552 q 1836 1347 1793 1552 l 1836 1335 q 1560 249 1836 1124 q 1445 -41 1533 197 l 1255 -422 q 939 -678 1090 -678 l 904 -678 q 530 -439 717 -678 q 202 277 323 -78 q 64 829 109 528 q 41 1063 41 1026 q 265 1534 43 1474 q 305 1540 288 1540 q 570 1369 407 1540 q 852 806 766 1045 q 916 642 892 642 l 932 642 q 1008 840 961 642 q 1163 1177 1052 960 q 1635 1552 1402 1552 z "},"w":{"ha":2357,"x_min":16,"x_max":2302,"o":"m 346 1563 q 673 1346 493 1541 l 795 1183 q 909 932 862 1076 q 939 907 933 906 l 962 907 q 1175 1055 1095 1053 l 1203 1056 q 1416 873 1304 1059 q 1451 864 1435 863 q 1537 1023 1477 865 q 2015 1541 1800 1534 l 2066 1543 q 2291 1134 2246 1549 l 2302 1004 q 2141 43 2302 562 q 1900 -478 2014 -363 q 1624 -661 1754 -656 q 1318 -475 1495 -665 q 1192 -301 1198 -302 q 1168 -297 1181 -296 q 1099 -391 1144 -298 q 737 -662 918 -656 l 720 -663 q 354 -356 534 -668 q 95 281 147 28 q 87 1203 16 728 q 346 1563 170 1557 z "},"x":{"ha":1879,"x_min":41,"x_max":1813,"o":"m 1533 1525 l 1544 1525 q 1727 1383 1643 1525 q 1759 1210 1758 1293 q 1690 869 1767 1094 q 1457 431 1615 671 q 1446 387 1446 411 l 1446 376 q 1663 36 1455 334 q 1813 -403 1813 -267 l 1813 -440 q 1624 -667 1813 -667 q 1113 -403 1392 -667 q 957 -251 991 -251 l 952 -251 q 763 -408 920 -251 q 252 -667 444 -651 q 52 -527 123 -667 q 41 -484 41 -507 l 41 -457 q 318 176 41 -183 q 452 376 350 249 l 457 404 l 457 420 q 219 787 457 443 q 74 1188 74 1039 l 74 1232 q 174 1475 74 1359 q 269 1518 226 1518 l 313 1518 q 702 1312 427 1515 q 897 1096 764 1253 q 935 1080 920 1080 q 1109 1255 979 1090 q 1533 1525 1392 1525 z "},"y":{"ha":1773,"x_min":18,"x_max":1701,"o":"m 528 1559 l 581 1559 q 763 1416 684 1559 q 793 1225 781 1366 q 787 822 785 878 q 854 764 789 780 q 922 876 928 764 q 1027 1225 968 1137 q 1336 1527 1181 1527 l 1341 1527 q 1653 1008 1541 1527 q 1681 769 1676 872 q 1605 -165 1701 350 q 1388 -621 1529 -463 q 1175 -727 1263 -727 q 920 -605 1014 -727 q 842 -287 850 -475 q 835 -54 841 -176 q 807 -22 827 -32 l 791 -22 q 628 -48 682 -48 q 238 100 398 -48 q 74 424 110 254 l 48 631 q 330 1501 18 1243 q 528 1559 440 1559 z "},"z":{"ha":2098,"x_min":41,"x_max":2024,"o":"m 941 1552 l 1092 1552 q 1415 1508 1415 1531 q 1760 1217 1760 1402 l 1760 1185 q 1409 593 1760 960 q 1404 571 1409 581 q 1463 533 1413 533 l 1495 533 q 1997 248 1870 533 q 2024 86 2024 170 q 1771 -426 2024 -121 q 1350 -690 1516 -656 q 1021 -766 1162 -766 q 483 -658 661 -766 q 52 -259 176 -529 l 41 -189 q 214 16 41 -29 q 251 21 229 16 q 553 -43 343 21 q 752 -71 681 -71 q 897 -1 826 -71 l 897 21 q 854 43 897 32 q 682 32 770 32 q 342 248 463 32 q 332 307 332 286 q 623 690 332 496 q 774 808 765 787 q 655 862 774 857 q 288 1013 395 916 q 192 1196 192 1105 q 494 1466 192 1352 q 941 1552 834 1552 z "},"‘":{"ha":878,"x_min":41,"x_max":823,"o":"m 420 846 q 93 1036 235 846 q 41 1208 41 1133 q 144 1548 74 1476 q 519 1876 334 1822 q 553 1882 527 1882 q 754 1727 665 1882 q 823 1306 823 1394 l 823 1266 q 640 909 823 1034 q 420 846 500 846 z "},"’":{"ha":878,"x_min":41,"x_max":823,"o":"m 444 1882 q 771 1692 629 1882 q 823 1519 823 1595 q 720 1179 790 1251 q 345 852 530 905 q 311 846 337 846 q 110 1001 199 846 q 41 1421 41 1333 l 41 1461 q 224 1818 41 1694 q 444 1882 363 1882 z "},"“":{"ha":1973,"x_min":41,"x_max":1919,"o":"m 420 846 q 93 1036 235 846 q 41 1208 41 1133 q 144 1548 74 1476 q 519 1876 334 1822 q 553 1882 527 1882 q 754 1727 665 1882 q 823 1306 823 1394 l 823 1266 q 640 909 823 1034 q 420 846 500 846 m 1516 846 q 1189 1036 1331 846 q 1137 1208 1137 1133 q 1240 1548 1170 1476 q 1615 1876 1430 1822 q 1649 1882 1623 1882 q 1850 1727 1761 1882 q 1919 1306 1919 1394 l 1919 1266 q 1735 909 1919 1034 q 1516 846 1596 846 z "},"”":{"ha":1973,"x_min":41,"x_max":1919,"o":"m 444 1882 q 771 1692 629 1882 q 823 1519 823 1595 q 720 1179 790 1251 q 345 852 530 905 q 311 846 337 846 q 110 1001 199 846 q 41 1421 41 1333 l 41 1461 q 224 1818 41 1694 q 444 1882 363 1882 m 1539 1882 q 1867 1692 1725 1882 q 1919 1519 1919 1595 q 1815 1179 1886 1251 q 1441 852 1626 905 q 1407 846 1433 846 q 1206 1001 1295 846 q 1137 1421 1137 1333 l 1137 1461 q 1320 1818 1137 1694 q 1539 1882 1459 1882 z "},"…":{"ha":3640,"x_min":41,"x_max":3586,"o":"m 809 110 q 955 -87 916 24 q 911 -334 974 -227 q 507 -540 805 -518 q 321 -492 397 -536 q 147 -93 41 -277 l 165 -63 q 622 165 288 151 q 809 110 744 147 m 2116 110 q 2261 -87 2222 24 q 2218 -334 2280 -227 q 1813 -540 2112 -518 q 1628 -492 1703 -536 q 1453 -93 1347 -277 l 1471 -63 q 1928 165 1594 151 q 2116 110 2050 147 m 3422 110 q 3567 -87 3529 24 q 3524 -334 3586 -227 q 3120 -540 3418 -518 q 2934 -492 3009 -536 q 2760 -93 2654 -277 l 2777 -63 q 3234 165 2901 151 q 3422 110 3357 147 z "},"-":{"ha":1591,"x_min":41,"x_max":1537,"o":"m 783 736 q 1272 696 1067 738 q 1537 475 1537 620 l 1537 467 q 1290 229 1537 332 q 766 151 1050 151 q 248 227 486 151 q 41 431 41 329 q 346 677 41 563 q 783 736 590 735 z "},"/":{"ha":1815,"x_min":41,"x_max":1761,"o":"m 1652 1750 q 1761 1623 1752 1750 q 985 121 1761 1282 q 564 -368 721 -214 q 156 -656 248 -656 l 144 -656 q 41 -472 50 -656 l 41 -454 q 219 195 54 -218 q 559 789 408 572 q 1042 1375 624 924 q 1652 1750 1449 1731 z "},"#":{"ha":2280,"x_min":31,"x_max":2224,"o":"m 308 420 q 372 699 339 578 q 177 849 177 774 q 493 1044 177 953 q 655 1369 554 1178 q 1080 1744 909 1725 q 1210 1617 1166 1744 q 1202 1124 1254 1459 q 1357 1122 1282 1124 q 1482 1369 1409 1231 q 1908 1744 1737 1725 q 2037 1617 1994 1744 q 2017 1050 2086 1442 q 2224 890 2224 987 l 2224 882 q 1938 684 2224 770 q 1874 437 1909 566 q 2078 277 2078 374 l 2078 269 q 1758 61 2078 152 q 1551 -374 1636 -233 q 1276 -662 1356 -662 l 1266 -662 q 1125 -478 1185 -662 l 1120 -460 q 1086 -13 1080 -285 q 1023 -14 1055 -14 q 900 -12 961 -14 q 724 -374 798 -251 q 449 -662 528 -662 l 439 -662 q 298 -478 357 -662 l 293 -460 q 261 73 247 -258 q 31 237 31 155 q 308 420 31 334 m 1090 600 q 1067 511 1078 556 q 1154 511 1111 511 q 1174 599 1164 557 l 1169 599 q 1090 600 1129 599 z "},"$":{"ha":1891,"x_min":29,"x_max":1834,"o":"m 712 1687 q 727 1745 719 1716 q 930 1986 829 1986 q 1145 1723 1044 1986 q 1510 1590 1356 1691 q 1721 1310 1694 1458 q 1748 1142 1742 1261 q 1466 816 1735 880 q 1409 812 1436 811 q 1131 918 1333 816 q 1023 947 1060 945 l 983 948 q 935 905 937 951 q 1236 798 955 811 q 1647 628 1410 789 q 1803 403 1772 524 q 1833 175 1834 296 q 1673 -279 1828 -59 q 1188 -620 1478 -540 q 1172 -681 1181 -650 q 969 -922 1070 -922 q 748 -640 851 -922 q 298 -470 528 -604 q 41 -66 29 -298 q 222 214 47 79 q 443 266 335 271 q 870 165 492 264 l 905 163 l 928 179 q 693 260 972 252 q 312 422 527 273 q 106 683 153 547 q 73 953 66 798 q 186 1270 79 1067 q 454 1563 290 1458 q 712 1687 591 1643 z "},"*":{"ha":1312,"x_min":18,"x_max":1280,"o":"m 252 1449 q 109 1688 168 1565 q 115 1978 41 1908 q 504 1926 211 2069 q 642 1829 577 1878 q 882 1972 759 1913 q 1173 1967 1103 2041 q 1120 1579 1264 1871 q 1026 1444 1074 1507 q 1153 1265 1100 1352 q 1175 922 1280 1021 l 1168 916 q 825 932 1070 823 q 637 1055 728 985 q 460 929 545 982 q 117 907 215 802 l 110 914 q 126 1256 18 1012 q 252 1449 180 1355 z "},"+":{"ha":1591,"x_min":38,"x_max":1540,"o":"m 513 173 q 243 239 372 195 q 40 448 38 347 q 351 688 43 580 q 517 718 437 706 q 585 989 540 860 q 792 1192 691 1195 q 1032 882 925 1190 q 1061 720 1050 798 q 1278 684 1179 707 q 1537 458 1540 602 l 1537 450 q 1284 217 1534 315 q 1064 169 1179 186 q 1029 -45 1051 53 q 803 -304 947 -308 l 793 -304 q 562 -52 659 -301 q 513 173 530 56 z "},"=":{"ha":1591,"x_min":41,"x_max":1537,"o":"m 783 413 q 1272 372 1067 414 q 1537 152 1537 296 l 1537 143 q 1290 -95 1537 8 q 766 -172 1050 -172 q 248 -96 486 -172 q 41 107 41 5 q 346 354 41 239 q 783 413 590 412 m 783 1119 q 1272 1078 1067 1120 q 1537 858 1537 1002 l 1537 849 q 1290 611 1537 714 q 766 534 1050 534 q 248 610 486 534 q 41 813 41 711 q 346 1060 41 945 q 783 1119 590 1118 z "},"¡":{"ha":975,"x_min":41,"x_max":921,"o":"m 374 -730 l 357 -730 q 115 -494 214 -730 q 41 -75 41 -267 q 161 731 41 491 q 432 1042 251 959 l 460 1042 q 736 806 571 1042 q 921 115 904 507 q 777 -431 921 -155 q 553 -667 702 -568 q 374 -730 453 -730 m 374 1157 l 368 1157 q 173 1221 266 1157 q 75 1404 75 1304 q 363 1803 75 1688 q 652 1835 498 1842 q 863 1571 863 1801 q 627 1234 863 1374 q 374 1157 491 1157 z "},"¿":{"ha":1747,"x_min":39,"x_max":1693,"o":"m 496 -671 q 101 -466 197 -671 q 41 -210 41 -357 q 375 607 39 83 q 795 1021 528 814 q 1025 1097 932 1097 q 1225 951 1194 1097 q 1025 446 1238 820 l 1025 429 q 1042 406 1009 396 l 1054 406 q 1192 469 1066 406 q 1417 532 1336 532 l 1422 532 q 1681 336 1582 532 q 1693 273 1693 288 q 1510 -135 1693 139 q 1215 -429 1312 -382 q 749 -636 1008 -585 q 496 -671 597 -671 m 939 1227 l 934 1228 q 760 1303 839 1238 q 688 1474 677 1385 q 995 1797 717 1723 q 1266 1797 1124 1817 q 1434 1544 1458 1747 q 1181 1271 1414 1371 q 939 1227 1048 1216 z "},"€":{"ha":1459,"x_min":2,"x_max":1514,"o":"m 1173 208 l 1238 96 q 1501 -445 1514 -286 l 1499 -480 q 1485 -519 1497 -502 q 1261 -645 1388 -654 l 1226 -642 q 539 -283 856 -615 q 350 35 414 -122 q 276 204 306 117 q 205 218 240 210 q 2 348 2 283 q 220 485 2 421 q 218 623 215 553 q 212 625 215 624 q 9 755 9 690 q 259 901 9 833 q 333 1078 287 998 q 593 1469 447 1334 q 1166 1699 836 1724 l 1177 1699 q 1392 1647 1332 1687 q 1484 1483 1490 1566 q 1326 1238 1480 1434 q 1172 1036 1211 1105 q 1116 937 1140 984 q 1215 925 1167 931 q 1474 784 1474 876 l 1474 779 q 1232 626 1474 692 q 1042 594 1140 606 q 1049 534 1044 565 q 1208 518 1134 528 q 1467 377 1467 469 l 1467 371 q 1225 218 1467 285 q 1173 208 1200 213 z "},"&":{"ha":2098,"x_min":45,"x_max":2028,"o":"m 800 1720 q 811 1761 805 1741 q 1014 2003 913 2003 q 1235 1723 1132 2003 q 1575 1645 1357 1702 q 1877 1362 1877 1525 q 1780 1171 1877 1267 q 1414 1013 1674 1069 q 1295 956 1295 1007 q 1446 833 1303 934 q 1737 432 1737 629 q 1727 370 1737 410 q 1387 144 1606 144 q 1215 156 1299 144 q 1171 134 1171 144 l 1171 111 q 1317 37 1242 37 q 1516 66 1388 37 q 1817 134 1726 134 q 1855 128 1839 128 q 2028 -87 2028 81 l 2018 -159 q 1586 -576 1892 -442 q 1250 -680 1462 -655 q 1053 -906 1151 -906 q 844 -656 942 -906 q 719 -610 784 -638 q 298 -334 553 -576 q 45 201 45 -15 q 72 370 45 289 q 573 669 199 669 l 606 669 q 665 709 656 669 q 659 731 659 718 q 309 1351 309 1116 l 309 1385 q 654 1689 309 1577 q 800 1720 654 1705 z "},":":{"ha":878,"x_min":41,"x_max":823,"o":"m 513 201 q 737 104 648 180 q 823 -132 823 -7 q 576 -512 823 -345 q 392 -564 478 -564 q 41 -305 41 -518 l 41 -271 q 323 155 41 -23 q 513 201 437 201 m 416 1373 l 444 1373 q 726 1200 578 1373 q 761 1067 761 1112 q 473 722 761 863 q 323 694 394 694 q 99 820 201 694 q 53 993 53 918 l 53 1044 q 289 1344 53 1223 q 416 1373 376 1373 z "}}}
